# Blender v2.75 (sub 0) OBJ File: 'viceversarocket.blend'
# www.blender.org
mtllib viceversarocket.mtl
o Plane.001
v -0.400000 0.101926 0.800000
v 0.400000 0.101926 0.800000
v 0.000000 0.101926 -0.827170
v -0.237203 0.101926 -0.370377
v 0.378297 0.101926 0.243208
v 0.299781 0.101926 0.124669
v 0.237203 0.101926 -0.370377
v -0.228249 0.101926 0.512968
v 0.228249 0.101926 0.512968
v -0.378297 0.101926 0.243208
v -0.299781 0.101926 0.124669
v -0.170651 0.101926 0.812968
v 0.170651 0.101926 0.812968
v -0.400000 -0.106802 0.800000
v 0.400000 -0.106802 0.800000
v 0.000000 -0.106802 -0.827170
v -0.237203 -0.106802 -0.370377
v 0.378297 -0.106802 0.243208
v 0.299781 -0.106802 0.124669
v 0.237203 -0.106802 -0.370377
v -0.228249 -0.106802 0.512968
v 0.228249 -0.106802 0.512968
v -0.378297 -0.106802 0.243208
v -0.299781 -0.106802 0.124669
v -0.170651 -0.106802 0.812968
v 0.170651 -0.106802 0.812968
vt 0.226872 0.800500
vt 0.353941 0.800500
vt 0.290406 0.922852
vt 0.229270 0.563897
vt 0.351543 0.563897
vt 0.194275 0.636152
vt 0.391733 0.636152
vt 0.370703 0.667902
vt 0.215305 0.667902
vt 0.183266 0.487015
vt 0.397546 0.487015
vt 0.253462 0.469523
vt 0.327351 0.469523
vn 0.000000 1.000000 0.000000
vn 0.000000 -1.000000 0.000000
vn -0.858100 0.000000 0.513500
vn 0.000000 0.000000 1.000000
vn 0.887500 0.000000 -0.460800
vn -0.982100 0.000000 0.188600
vn 0.999200 0.000000 -0.038900
vn 0.982100 0.000000 0.188600
vn -0.833700 0.000000 -0.552200
vn 0.833700 0.000000 -0.552200
vn 0.992100 0.000000 -0.125400
vn -0.999200 0.000000 -0.038900
vn 0.858100 0.000000 0.513500
vn -0.992100 0.000000 -0.125400
vn -0.887500 0.000000 -0.460800
usemtl Material.001
s off
f 4/1/1 7/2/1 3/3/1
f 8/4/1 9/5/1 10/6/1
f 10/6/1 5/7/1 6/8/1 11/9/1
f 1/10/1 8/4/1 10/6/1
f 11/9/1 6/8/1 7/2/1 4/1/1
f 9/5/1 2/11/1 5/7/1 10/6/1
f 9/5/1 8/4/1 12/12/1 13/13/1
f 17/1/2 16/3/2 20/2/2
f 21/4/2 23/6/2 22/5/2
f 23/6/2 24/9/2 19/8/2 18/7/2
f 14/10/2 23/6/2 21/4/2
f 24/9/2 17/1/2 20/2/2 19/8/2
f 22/5/2 23/6/2 18/7/2 15/11/2
f 22/5/2 26/13/2 25/12/2 21/4/2
f 9/5/3 22/5/3 15/11/3 2/11/3
f 12/12/4 25/12/4 26/13/4 13/13/4
f 7/2/5 20/2/5 16/3/5 3/3/5
f 8/4/6 21/4/6 25/12/6 12/12/6
f 2/11/7 15/11/7 18/7/7 5/7/7
f 13/13/8 26/13/8 22/5/8 9/5/8
f 11/9/9 24/9/9 23/6/9 10/6/9
f 5/7/10 18/7/10 19/8/10 6/8/10
f 6/8/11 19/8/11 20/2/11 7/2/11
f 10/6/12 23/6/12 14/10/12 1/10/12
f 1/10/13 14/10/13 21/4/13 8/4/13
f 4/1/14 17/1/14 24/9/14 11/9/14
f 3/3/15 16/3/15 17/1/15 4/1/15
